<?xml version="1.0" encoding="UTF-8"?>
<svg width="1923px" height="961px" viewBox="0 0 1923 961" version="1.1" xmlns="http://www.w3.org/2000/svg" xmlns:xlink="http://www.w3.org/1999/xlink">
    <title>Group 10</title>
    <g id="Refining---Modules" stroke="none" stroke-width="1" fill="none" fill-rule="evenodd">
        <g id="Solutions---Mass-Payments" transform="translate(3.000000, -3795.000000)">
            <g id="Dark-block" transform="translate(-3.000000, 3795.000000)">
                <g id="Group-10" transform="translate(0.000000, 0.437500)">
                    <path d="M0,960 L791.767766,960 C810.678587,960 827.257324,947.361717 832.267144,929.126562 L933.988325,558.873438 C938.998144,540.638283 955.576881,528 974.487703,528 L1923,528 L1923,528 L1923,0 L0,0 L0,960 Z" id="Path-2" fill="#2A3A46"></path>
                    <path d="M2.90625,527 L1257.55491,527 C1276.35564,527 1292.86612,514.505692 1297.97469,496.412325 L1396.84858,146.224152 C1401.95715,128.130784 1418.46763,115.636477 1437.26836,115.636477 L1922.90625,115.636477 L1922.90625,115.636477 L1922.90625,1.8189894e-12 L2.90625,1.8189894e-12 L2.90625,527 Z" id="Path-2" fill="#3A4A58" opacity="0.617094494"></path>
                </g>
            </g>
        </g>
    </g>
</svg>