<svg xmlns="http://www.w3.org/2000/svg" width="42" height="42" viewBox="0 0 42 42">
    <g fill="none" fill-rule="evenodd">
        <g>
            <g>
                <path d="M0 0H42V42H0z" transform="translate(-107 -326) translate(107 326)"/>
                <path fill="#4A90E2" fill-rule="nonzero" d="M8.75 26.25L5.25 37.625 16.625 34.125z" transform="translate(-107 -326) translate(107 326)"/>
                <path fill="#E4EEFB" fill-rule="nonzero" d="M23.625 36.75C14.443 36.75 7 29.307 7 20.125S14.443 3.5 23.625 3.5 40.25 10.943 40.25 20.125 32.807 36.75 23.625 36.75zM15.75 14c-.966 0-1.75.784-1.75 1.75s.784 1.75 1.75 1.75H31.5c.966 0 1.75-.784 1.75-1.75S32.466 14 31.5 14H15.75zm0 7c-.966 0-1.75.784-1.75 1.75s.784 1.75 1.75 1.75h8.75c.966 0 1.75-.784 1.75-1.75S25.466 21 24.5 21h-8.75z" transform="translate(-107 -326) translate(107 326)"/>
            </g>
        </g>
    </g>
</svg>
