<svg xmlns="http://www.w3.org/2000/svg" width="42" height="42" viewBox="0 0 42 42">
    <g fill="none" fill-rule="evenodd">
        <g>
            <g>
                <path d="M0 0H42V42H0z" transform="translate(-107 -182) translate(107 182)"/>
                <path fill="#4A90E2" fill-rule="nonzero" d="M27.992 10.5H15.75c-2.9 0-5.25 2.35-5.25 5.25v12.242C8.228 27.88 7 26.55 7 24.182V10.818C7 8.343 8.343 7 10.818 7h13.364c2.367 0 3.698 1.228 3.81 3.5z" transform="translate(-107 -182) translate(107 182)"/>
                <path fill="#E4EEFB" fill-rule="nonzero" d="M17.818 14h13.364C33.657 14 35 15.343 35 17.818v13.364C35 33.657 33.657 35 31.182 35H17.818C15.343 35 14 33.657 14 31.182V17.818C14 15.343 15.343 14 17.818 14z" transform="translate(-107 -182) translate(107 182)"/>
            </g>
        </g>
    </g>
</svg>
