<svg xmlns="http://www.w3.org/2000/svg" width="42" height="42" viewBox="0 0 42 42">
    <g fill="none" fill-rule="evenodd">
        <g>
            <g transform="translate(-29 -251) translate(29 251)">
                <path d="M0 0H42V42H0z"/>
                <path fill="#4A90E2" fill-rule="nonzero" d="M18.038 7h18.757c.942 0 1.705.784 1.705 1.75v3.5c0 .966-.763 1.75-1.705 1.75H18.038c-.941 0-1.705-.784-1.705-1.75v-3.5c0-.966.764-1.75 1.705-1.75zm0 10.5h18.757c.942 0 1.705.784 1.705 1.75v3.5c0 .966-.763 1.75-1.705 1.75H18.038c-.941 0-1.705-.784-1.705-1.75v-3.5c0-.966.764-1.75 1.705-1.75zm0 10.5h18.757c.942 0 1.705.784 1.705 1.75v3.5c0 .966-.763 1.75-1.705 1.75H18.038c-.941 0-1.705-.784-1.705-1.75v-3.5c0-.966.764-1.75 1.705-1.75z"/>
                <rect width="8.167" height="28" x="3.5" y="7" fill="#DBE9F9" fill-rule="nonzero" rx="1"/>
            </g>
        </g>
    </g>
</svg>
