<svg xmlns="http://www.w3.org/2000/svg" width="42" height="42" viewBox="0 0 42 42">
    <g fill="none" fill-rule="evenodd">
        <g>
            <g transform="translate(-25 -175) translate(25 175)">
                <path d="M0 0H42V42H0z"/>
                <rect width="12.25" height="12.25" x="7" y="7" fill="#4A90E2" fill-rule="nonzero" rx="1.5"/>
                <path fill="#E4EEFB" fill-rule="nonzero" d="M9.625 22.75h7c1.45 0 2.625 1.175 2.625 2.625v7c0 1.45-1.175 2.625-2.625 2.625h-7C8.175 35 7 33.825 7 32.375v-7c0-1.45 1.175-2.625 2.625-2.625zM25.375 7h7C33.825 7 35 8.175 35 9.625v7c0 1.45-1.175 2.625-2.625 2.625h-7c-1.45 0-2.625-1.175-2.625-2.625v-7C22.75 8.175 23.925 7 25.375 7zm0 15.75h7c1.45 0 2.625 1.175 2.625 2.625v7C35 33.825 33.825 35 32.375 35h-7c-1.45 0-2.625-1.175-2.625-2.625v-7c0-1.45 1.175-2.625 2.625-2.625z"/>
            </g>
        </g>
    </g>
</svg>
