<svg xmlns="http://www.w3.org/2000/svg" width="42" height="42" viewBox="0 0 42 42">
    <g fill="none" fill-rule="evenodd">
        <g>
            <g>
                <path d="M0 0H42V42H0z" transform="translate(-28 -393) translate(28 393)"/>
                <path fill="#4A90E2" fill-rule="nonzero" d="M14 23.024L35.527 21 14 18.977V10.2c0-.123.026-.244.076-.356.196-.437.708-.632 1.144-.435l23.937 10.8c.192.086.347.241.433.434.196.437.002.95-.433 1.147L15.22 32.59c-.112.05-.233.076-.355.076-.478 0-.865-.388-.865-.867v-8.776z" transform="translate(-28 -393) translate(28 393)"/>
                <path fill="#DBE9F9" fill-rule="nonzero" d="M7 28h1.75c.966 0 1.75.784 1.75 1.75s-.784 1.75-1.75 1.75H7c-.966 0-1.75-.784-1.75-1.75S6.034 28 7 28zm-5.25-8.75h7c.966 0 1.75.784 1.75 1.75s-.784 1.75-1.75 1.75h-7C.784 22.75 0 21.966 0 21s.784-1.75 1.75-1.75zM7 10.5h1.75c.966 0 1.75.784 1.75 1.75S9.716 14 8.75 14H7c-.966 0-1.75-.784-1.75-1.75S6.034 10.5 7 10.5z" transform="translate(-28 -393) translate(28 393)"/>
            </g>
        </g>
    </g>
</svg>
