<svg xmlns="http://www.w3.org/2000/svg" width="42" height="42" viewBox="0 0 42 42">
    <g fill="none" fill-rule="evenodd">
        <g>
            <g>
                <path d="M0 0H42V42H0z" transform="translate(-107 -251) translate(107 251)"/>
                <path fill="#4A90E2" fill-rule="nonzero" d="M28.655 34.893L38.89 19.541c.402-.604.239-1.418-.364-1.82-.216-.144-.47-.221-.728-.221H29.75V7.835c0-.725-.588-1.313-1.313-1.313-.438 0-.848.22-1.092.585L17.11 22.459c-.402.604-.239 1.418.364 1.82.216.144.47.221.728.221h8.048v9.665c0 .725.588 1.313 1.313 1.313.438 0 .848-.22 1.092-.585z" transform="translate(-107 -251) translate(107 251)"/>
                <path fill="#E4EEFB" fill-rule="nonzero" d="M7.875 8.75h8.75c1.45 0 2.625 1.175 2.625 2.625S18.075 14 16.625 14h-8.75c-1.45 0-2.625-1.175-2.625-2.625S6.425 8.75 7.875 8.75zm0 21h8.75c1.45 0 2.625 1.175 2.625 2.625S18.075 35 16.625 35h-8.75c-1.45 0-2.625-1.175-2.625-2.625s1.175-2.625 2.625-2.625zm-3.5-10.5h7c1.45 0 2.625 1.175 2.625 2.625S12.825 24.5 11.375 24.5h-7c-1.45 0-2.625-1.175-2.625-2.625s1.175-2.625 2.625-2.625z" transform="translate(-107 -251) translate(107 251)"/>
            </g>
        </g>
    </g>
</svg>
