<svg xmlns="http://www.w3.org/2000/svg" width="88" height="106" viewBox="0 0 88 106">
    <g fill="none" fill-rule="evenodd" opacity=".5">
        <g fill="#2A3A46">
            <g>
                <path d="M0 87.379h87.654V-.001H0v87.38zm5.03-5.014h77.595V5.015H5.029v77.35z" transform="translate(-256 -64) translate(256 64)"/>
                <path d="M16.784 54.175L22.12 54.175 22.12 26.926 16.784 26.926zM70.87 15.353L64.842 15.353 53.429 35.733 48.668 26.931 28.279 26.927 28.279 54.175 33.616 54.175 33.616 43.114 44.404 43.114 44.404 38.368 33.616 38.368 33.616 31.672 45.439 31.672 50.551 40.212 28.279 77.43 34.383 77.43 53.429 44.689 58.727 54.181 64.831 54.181 56.309 40.212zM4.438 102.156H2.272v4.223H.075v-11.22h4.363c2.34 0 3.716 1.591 3.716 3.499 0 1.906-1.377 3.498-3.716 3.498m-.111-5.043H2.272v3.073h2.055c.996 0 1.63-.615 1.63-1.528 0-.915-.634-1.545-1.63-1.545M13.495 95.16L9.4 106.38h2.293l.68-1.986h3.999l.664 1.986h2.292l-4.11-11.22h-1.723zm.918 3.307l1.375 4.083h-2.8l1.425-4.083zM26.804 95.159L24.732 99.682 22.63 95.159 20.244 95.159 23.627 101.778 23.627 106.38 25.809 106.38 25.809 101.778 29.191 95.159zM40.003 95.159L37.078 101.226 34.137 95.159 31.971 95.159 31.971 106.38 34.169 106.38 34.169 99.839 36.335 104.094 37.821 104.094 39.971 99.839 39.971 106.38 42.168 106.38 42.168 95.159zM46.213 95.159L46.213 106.38 53.627 106.38 53.627 104.425 48.411 104.425 48.411 101.698 52.852 101.698 52.852 99.744 48.411 99.744 48.411 97.114 53.627 97.114 53.627 95.159zM63.617 95.159L63.617 102.029 59.159 95.159 57.2 95.159 57.2 106.38 59.397 106.38 59.397 99.493 63.855 106.38 65.815 106.38 65.815 95.159zM69.022 95.159L69.022 97.114 71.962 97.114 71.962 106.38 74.16 106.38 74.16 97.114 77.099 97.114 77.099 95.159zM83.406 106.474c-1.708 0-3.005-.362-4.11-1.482l1.422-1.418c.711.709 1.676.945 2.703.945 1.313 0 2.009-.504 2.009-1.402 0-.378-.112-.693-.349-.93-.221-.204-.442-.3-1.01-.377l-1.345-.206c-.996-.142-1.676-.441-2.182-.93-.537-.52-.806-1.261-.806-2.206 0-2.001 1.486-3.403 3.92-3.403 1.55 0 2.672.377 3.637 1.307l-1.391 1.372c-.696-.679-1.565-.773-2.308-.773-1.17 0-1.723.646-1.723 1.419 0 .3.078.582.315.804.221.204.554.362 1.028.425l1.343.205c1.028.14 1.661.409 2.15.882.602.552.87 1.355.87 2.363 0 2.175-1.802 3.405-4.173 3.405" transform="translate(-256 -64) translate(256 64)"/>
            </g>
        </g>
    </g>
</svg>
